<svg width="80" height="80" viewBox="0 0 80 80" fill="none" xmlns="http://www.w3.org/2000/svg">
<circle cx="40" cy="40" r="40" transform="matrix(-1 0 0 1 80 0)" fill="#FFEA7B"/>
<path d="M55.8125 40C55.8125 31.2672 48.7328 24.1875 40 24.1875M55.8125 40C55.8125 48.7328 48.7328 55.8125 40 55.8125M55.8125 40C55.8125 43.1769 48.7328 45.75 40 45.75C31.2672 45.75 24.1875 43.1769 24.1875 40M40 24.1875C31.2672 24.1875 24.1875 31.2672 24.1875 40M40 24.1875C43.9689 24.1875 47.1875 31.2672 47.1875 40C47.1875 48.7328 43.9689 55.8125 40 55.8125M40 24.1875C36.0311 24.1875 32.8125 31.2672 32.8125 40C32.8125 48.7328 36.0311 55.8125 40 55.8125M40 55.8125C31.2672 55.8125 24.1875 48.7328 24.1875 40" stroke="#645F4D" stroke-width="2"/>
</svg>
