<svg width="80" height="80" viewBox="0 0 80 80" fill="none" xmlns="http://www.w3.org/2000/svg">
<circle cx="40" cy="40" r="40" transform="matrix(-1 0 0 1 80 0)" fill="#FFEA7B"/>
<path d="M40.0001 31.9504V56.1004M40.0001 31.9504V27.9254M40.0001 31.9504H35.9751C32.8767 31.9505 30.9401 28.5964 32.4893 25.913C34.0383 23.2296 37.9114 23.2295 39.4607 25.9127C39.8141 26.5247 40.0001 27.2188 40.0001 27.9254M40.0001 31.9504H44.0251C47.1235 31.9502 49.0601 28.596 47.5107 25.9127C45.9614 23.2295 42.0883 23.2296 40.5393 25.913C40.1861 26.5248 40.0001 27.2188 40.0001 27.9254M25.9126 44.0254H54.0876M25.9126 44.0254C25.9126 40.2772 25.5423 36.5389 24.8081 32.8649L24.7051 32.3529V31.9504H55.2951V32.3529L55.192 32.8649C54.4573 36.5396 54.0873 40.278 54.0876 44.0254M25.9126 44.0254C25.9126 47.7735 25.5423 51.5119 24.8081 55.1858L24.7051 55.6979V56.1004H55.2951V55.6979L55.192 55.1858C54.4573 51.5112 54.0873 47.7728 54.0876 44.0254" stroke="#645F4D" stroke-width="2"/>
</svg>
