<svg width="80" height="80" viewBox="0 0 80 80" fill="none" xmlns="http://www.w3.org/2000/svg">
<circle cx="40" cy="40" r="40" transform="matrix(-1 0 0 1 80 0)" fill="#FFEA7B"/>
<path d="M24.9062 35.6875V52.9375M49.3437 52.2187V51.9887C49.3433 46.5671 51.2581 41.3196 54.7502 37.1724L55.0937 36.7656V36.4063H42.1562V31.375C42.1562 30.7143 42.0261 30.06 41.7733 29.4496C41.5204 28.8392 41.1498 28.2846 40.6826 27.8174C40.2154 27.3502 39.6608 26.9796 39.0504 26.7267C38.44 26.4739 37.7857 26.3438 37.125 26.3438H36.4062V29.9375C36.4062 30.787 36.2389 31.6282 35.9138 32.413C35.5888 33.1978 35.1123 33.9109 34.5116 34.5116C33.9109 35.1123 33.1978 35.5888 32.413 35.9138C31.6282 36.2389 30.787 36.4063 29.9375 36.4063H29.2187V52.2187H49.3437Z" stroke="#645F4D" stroke-width="2"/>
</svg>
