<svg width="80" height="80" viewBox="0 0 80 80" fill="none" xmlns="http://www.w3.org/2000/svg">
<circle cx="40" cy="40" r="40" transform="matrix(-1 0 0 1 80 0)" fill="#FFEA7B"/>
<path d="M39.9999 33.469V31.9106M39.9999 32.3163C39.9999 27.8596 43.6115 24.248 48.0682 24.248C52.5249 24.248 56.1366 27.9088 56.1366 32.3656C56.1366 34.7629 55.0792 37.0605 53.2474 38.6081L44.5535 45.948C41.6659 48.3863 39.9999 51.9734 39.9999 55.7529C39.9999 51.9734 38.334 48.3863 35.4464 45.948L26.7525 38.6081C24.9196 37.0524 23.8631 34.7697 23.8633 32.3656C23.8633 27.9088 27.4749 24.248 31.9317 24.248C36.3885 24.248 39.9999 27.8596 39.9999 32.3163Z" stroke="#645F4D" stroke-width="2"/>
</svg>
